<!DOCTYPE svg PUBLIC "-//W3C//DTD SVG 1.1//EN" "http://www.w3.org/Graphics/SVG/1.1/DTD/svg11.dtd">
<!-- Uploaded to: SVG Repo, www.svgrepo.com, Transformed by: SVG Repo Mixer Tools -->
<svg width="800px" height="800px" viewBox="0 0 16 16" xmlns="http://www.w3.org/2000/svg" fill="#4D4D4D" class="bi bi-cloud-haze2-fill">
<g id="SVGRepo_bgCarrier" stroke-width="0"/>
<g id="SVGRepo_tracerCarrier" stroke-linecap="round" stroke-linejoin="round"/>
<g id="SVGRepo_iconCarrier"> <path d="M8.5 2a5.001 5.001 0 0 1 4.905 4.027A3 3 0 0 1 13 12H3.5A3.5 3.5 0 0 1 .035 9H5.5a.5.5 0 0 0 0-1H.035a3.5 3.5 0 0 1 3.871-2.977A5.001 5.001 0 0 1 8.5 2zm-6 8a.5.5 0 0 0 0 1h9a.5.5 0 0 0 0-1h-9zM0 13.5a.5.5 0 0 1 .5-.5h9a.5.5 0 0 1 0 1h-9a.5.5 0 0 1-.5-.5z"/> </g>
</svg>